<svg version="1.1" viewBox="0 0 824.4 615.6" xmlns="http://www.w3.org/2000/svg"><g transform="translate(-27.82 -23.61)"><g transform="translate(-12 16.29)"><path d="m579.5 617.5c-4.633-2.174-60.07-42.67-65.81-48.08-9.424-8.871-11.39-24.35-4.76-37.42 2.948-5.808 3.25-7.05 2.25-9.245-2.181-4.787-4.289 0.4114 27.35-67.44 19.53-41.88 27.77-58.64 28.2-57.37 0.2916 0.8556-26.88 78.18-33.63 95.7-2.086 5.416 0.8496 2.103 14.03-15.84 7.274-9.9 22.68-30.82 34.24-46.5 35.29-47.86 40.48-54.9 75.9-103.1 105.5-143.4 95.08-130.3 107-134 8.125-2.515 17.18-2.288 22.71 0.5687 7.168 3.707 66.58 48.47 68.85 51.87 5.241 7.856 6.405 17.52 3.31 27.46-2.242 7.202 3.165-0.5355-52.18 74.68-213.2 289.8-192.5 262.3-201.3 267.1-6.857 3.736-19.91 4.53-26.17 1.592zm46.75-67.96c3.914-3.914 4.633-9.52 1.8-14.04-7.342-11.72-25.01-3.392-20.68 9.741 2.658 8.059 12.81 10.37 18.88 4.3zm-28.18-19.98c5.822-5.203 4.744-15.24-2.013-18.73-8.165-4.222-17.03 1.143-17.03 10.31 0 9.738 11.76 14.94 19.05 8.427zm53.55-14.65c9.561-9.561-1.567-24.32-13.63-18.08-1.613 0.8343-3.616 2.837-4.45 4.45-6.101 11.8 8.733 22.98 18.08 13.63zm-29.5-18.88c7.84-5.267 7.034-15.95-1.518-20.13-5.156-2.517-10.87-0.794-14.3 4.31-6.937 10.33 5.493 22.76 15.82 15.82zm53.63-14.29c5.832-3.772 6.63-12.35 1.633-17.57-7.163-7.476-19.64-2.344-19.64 8.08 0 9.425 9.971 14.68 18 9.486zm-28.7-19.94c6.757-3.494 7.836-13.53 2.013-18.73-7.328-6.548-19.05-1.309-19.05 8.515 0 9.226 8.773 14.49 17.03 10.22zm52.96-13.98c7.743-4.004 8.271-16.25 0.866-20.08-6.204-3.208-13.37-1.2-16.36 4.586-5.285 10.22 5.275 20.78 15.49 15.49zm-25.08-22.57c7.521-7.521 2.621-19.44-7.992-19.44-6.804 0-11.41 4.421-11.41 10.95 0 10.62 12.02 15.88 19.41 8.494zm51.13-12.46c11.08-5.731 5.187-22.85-7.294-21.17-10.04 1.347-13.4 13-5.742 19.94 3.499 3.171 8.393 3.634 13.04 1.233zm-28.39-20.12c9.007-4.274 8.25-17.01-1.249-20.97-9.998-4.178-19.01 6.723-13.83 16.73 2.708 5.236 9.157 7.05 15.08 4.24zm52.68-13.73c9.655-4.034 8.759-18.73-1.326-21.75-13.88-4.158-20.79 15.85-7.502 21.72 3.838 1.694 4.856 1.698 8.828 0.0389zm-26.31-21.31c6.608-3.903 7.401-12.73 1.62-18.02-9.674-8.865-23.63 1.469-18.01 13.33 2.841 5.986 10.49 8.178 16.39 4.695zm52.94-13.97c10.08-5.956 6.379-21.36-5.136-21.36-5.019 0-8.139 1.569-10.26 5.159-6.125 10.37 5.162 22.25 15.39 16.21zm-29.6-19.74c14.11-5.895 6.694-26.43-7.813-21.64-9.661 3.188-10.06 17.51-0.6014 21.44 4.467 1.857 4.451 1.856 8.415 0.2001zm57.24-17.02c6.842-6.842 3.258-18-6.187-19.27-9.716-1.303-16.39 8.021-11.92 16.66 3.646 7.05 12.4 8.313 18.11 2.611zm-27.98-19.71c7.927-7.447 3.125-20.16-7.615-20.16-12.39 0-16.04 16.2-4.97 22.05 3.401 1.795 9.668 0.8578 12.59-1.883zm-674.6 229.2c-22-6.717-22.32-7.736-31.45-102.1-13.83-142.8-28.54-294.4-30.13-310.5-2.664-26.95 3.5-41.23 20.27-46.94 14.16-4.825 155.8-16.5 163.8-13.51 20.16 7.542 20.34 8.144 28.96 97.92 7.727 80.41 19.35 200.3 21.51 222 12.9 129.1 13.1 126.1-9.369 137-9.036 4.391-154.9 18.73-163.6 16.08zm49-18.17c55.51-5.282 56.13-5.474 60.34-18.58 3.853-12 6.82-11.51-41.3-6.779-40.49 3.985-39.48 3.996-40.37-0.4502-0.7444-3.722-0.9279-3.731-25.67-1.244-18.6 1.87-19.47 2.892-13.5 15.94 7.602 16.64 5.833 16.31 60.5 11.11zm-39-36.74c15.5-1.658 15.5-1.658 15.81-5.359 0.3919-4.718-3.055-4.042 42.69-8.367 22.33-2.111 39.5-4.167 40.18-4.81 1.084-1.032 2e-3 -18.28-1.224-19.5-0.2151-0.2151-18.64 1.371-40.94 3.524-41.74 4.03-43.51 4.025-43.51-0.1359 0-1.315-0.4197-2.651-0.9326-2.968-1.268-0.784-40.19 3.155-41.09 4.159-0.5226 0.5818 2.198 33.25 2.919 35.05 0.2538 0.6339 11.98-0.081 26.1-1.592zm-9.703-45.13c21.66-2.15 22.11-2.264 21.33-5.392-1.121-4.467-0.566-4.584 41.43-8.7 22.2-2.176 40.77-4.355 41.25-4.843 0.9526-0.9526-0.0734-17.09-1.203-18.92-0.4829-0.7814-12.37 0.048-41.14 2.871-43.32 4.25-42.96 4.245-42.96 0.6097 0-1.325-0.5625-2.835-1.25-3.356-1.403-1.064-39.7 2.345-41.07 3.656-1.191 1.14 2.325 36.07 3.627 36.04 0.105-3e-3 9.1-0.8893 19.99-1.97zm-3.822-45.57c21.51-2.081 20.52-1.796 20.52-5.91 0-4.561-3.452-3.878 41.39-8.187 21.94-2.108 40.5-4.287 41.25-4.843 1.445-1.066-0.3282-25.53-1.969-27.17-0.8235-0.8235-123.2 10.77-124.9 11.83-1.047 0.6473 0.4156 24.92 1.994 33.08 0.6417 3.318 0.1478 3.29 21.76 1.2zm39.52-50.03c32.72-3.109 59.9-6.02 60.38-6.468 1.263-1.169-1.362-27.01-2.8-27.56-0.6343-0.2434-19.13 1.313-41.1 3.46-42.26 4.128-42.47 4.132-42.49 0.7904-0.0332-4.639-0.3534-4.677-21.5-2.566-24.04 2.399-21.8 0.1529-19.87 19.97 1.687 17.29 2.287 19.22 5.752 18.48 1.175-0.2494 28.91-2.997 61.64-6.106zm-52-40.92c25.49-2.447 24-2.075 24-6.008 0-4.626-2.661-4.09 42.1-8.483 46.02-4.516 42.05-3.189 41.23-13.81-0.9433-12.23 3.156-11.56-42.78-7.055-43.45 4.257-42.32 4.261-43.2-0.1235-0.7329-3.665 0.1422-3.614-23.7-1.368-13.06 1.23-17.99 2.051-18.38 3.062-0.6335 1.651 2.266 32.74 3.193 34.24 0.7914 1.281-0.9514 1.325 17.53-0.4491zm3-46.32c16.5-1.685 16.5-1.685 16.82-5.185 0.454-4.946-2.091-4.424 41.68-8.541 22.44-2.111 40.49-4.245 41.12-4.861 1.087-1.061-0.8332-26.14-2.098-27.4-0.7929-0.7929-124.6 11.47-125.5 12.43-0.7311 0.7699 1.493 30.86 2.522 34.13 0.5112 1.621 5.02 1.521 25.46-0.5654zm37-49.75c32.18-3.087 58.84-5.937 59.26-6.333 0.8257-0.7831-1.232-25.44-2.262-27.11-0.4179-0.6763-14.4 0.3229-41.46 2.963-42.05 4.103-42.54 4.117-42.54 1.173 0-4.911-1.049-5.052-22-2.955-23.6 2.362-21.55 0.2231-19.57 20.39 1.904 19.39 1.673 18.74 6.42 18.03 2.006-0.3008 29.97-3.073 62.15-6.16zm-51-40.95c23.2-2.278 22-1.949 22-6.058 0-4.509-3.371-3.846 42.13-8.286 44.02-4.295 42.22-3.906 41.49-8.99-0.2858-2.006-0.7999-6.235-1.143-9.397-0.7678-7.087 2.805-6.904-43.98-2.254-43.3 4.304-40.4 4.27-41.15 0.4827-0.3323-1.661-1.027-3.282-1.544-3.602-1.53-0.9459-39.2 2.789-40.41 4.007-0.8512 0.8602 1.367 32.01 2.519 35.37 0.1772 0.5167 5.033 0.21 20.09-1.268zm15.5-47.71c1.524-0.205 2.024-1.066 2.1-3.617 0.1034-3.462 1.604-5.11 4.676-5.136 6.664-0.05744 75.41-7.328 76.15-8.054 2.672-2.625-8.007-14.42-14.09-15.56-2.945-0.5525-85.08 6.734-92.83 8.235-8.743 1.694-18.36 18.47-15.24 26.6 0.4623 1.205 22.04-0.1502 39.24-2.464zm388.7 411.2c-4.848-1.947-5.323-0.4592 23.41-73.25 22.44-56.84 22.57-57.68-6.969 46.18-8.364 29.41-8.805 30.14-16.44 27.07zm-41.3-18.88c-4.163-4.163-4.112-4.588 6.65-54.86 18.22-85.09 20.31-91.98 15.39-50.72-1.114 9.35-2.915 24.42-4.004 33.5s-3.327 28.2-4.975 42.5c-4.049 35.14-3.472 32.5-7.11 32.5-2.017 0-4.01-0.9779-5.955-2.923zm-116.9-6.791c-4.417-1.242-9.014-3.764-9.439-5.178-1.694-5.632-4.362-118.2-2.764-116.6 2.016 1.978 19.91 117.2 18.54 119.3-1.139 1.806-4.303 3.035-6.339 2.462zm74.21-4.678c-6.248-6.004-6.31-2.531 1.808-101.6 5.294-64.62 6.09-72.22 7.421-70.89 0.7028 0.7028 2.735 175.8 2.053 176.9-1.55 2.508-5.832 0.8382-11.28-4.399zm-39.39-0.906c-5.268-4.014-5.146-2.448-6.76-86.7-2.18-113.8-2.483-114.2 11.93 16.5 3.881 35.2 7.307 65.39 7.614 67.1 1.227 6.808-5.708 8.494-12.78 3.106zm232.2-122.3c-0.0783-3.959 110.2-223.6 114.6-228.3 1.181-1.26 2.026-0.7176 6.233 4 2.676 3.002 7.179 7.032 10 8.957s5.14 3.906 5.141 4.402c0.0147 6.86-135.8 217.7-136 211zm-290.4-41.03c-1.163-5.734-34.68-259.7-34.38-260.6 0.1654-0.4962 3.278-1.904 6.917-3.129 3.639-1.225 9.397-3.943 12.79-6.04 8.048-4.968 6.804-8.223 10.47 27.39 6.72 65.19 10.31 272.5 4.198 242.3zm185.4-8.667c0-6.93 47.91-257.3 52.04-271.9 1.267-4.494 0.5601-4.433 7.929-0.6881 3.314 1.684 8.72 3.612 12.01 4.283 8.736 1.782 8.704-0.0031 0.5731 32.15-19.57 77.4-72.55 249.9-72.55 236.2zm69.6-10.18c2.297-11 74.06-223.6 76.2-225.7 0.6241-0.6241 2.698 0.2518 5.835 2.465 2.677 1.888 7.567 4.49 10.87 5.782 7.947 3.112 7.827 2.941 5.629 8.022-1.054 2.435-4.384 10.28-7.4 17.43-22.5 53.34-84.54 186.2-90.12 193-1.588 1.935-1.621 1.902-1.015-1zm-111-17.54c-1.988-15.44-6.521-260.4-4.85-262.1 0.7478-0.7478 2.978-0.4229 7.556 1.101 3.572 1.189 9.35 2.478 12.84 2.865 6.344 0.704 6.344 0.704 6.187 19.2-0.479 56.64-18.99 260.2-21.73 239zm-85.03-25.83c-2.499-4.043-22.01-227.1-19.97-228.4 0.4907-0.2947 6.591-0.04677 13.56 0.551 12.66 1.087 12.66 1.087 13.4 12.64 2.371 37.3-3.579 220.7-6.981 215.2z" fill="#d5a26c"/><path d="m578.9 616c-7.76-3.983-65.01-46.87-67.9-50.87-10.38-14.33-6.845-27.57 15.19-56.88 7.224-9.613 58.36-78.9 113.6-154s102.9-139.8 105.9-143.8c18.51-25.12 29.45-23.93 72.79 7.869 55.32 40.6 55.21 38.41 5.394 105.9-46.75 63.36-93.48 126.9-153.8 209-29.28 39.88-55.34 74.42-57.92 76.77-8.936 8.16-23.8 10.82-33.27 5.961zm46.7-64.22c3.377-2.213 5.723-8.001 5.014-12.37-1.582-9.752-14.79-13.93-21.48-6.803-10.32 10.98 3.829 27.46 16.47 19.17zm-28.66-20.15c11.52-6.807 4.974-24.83-8.372-23.04-8.514 1.142-13.18 10.76-9.075 18.7 2.888 5.585 11.65 7.764 17.45 4.34zm53.07-13.88c3.619-1.871 5.967-6.212 5.967-11.03 0-12.59-15.62-17.08-22.72-6.542-7.24 10.74 5.044 23.63 16.75 17.57zm-27.93-20.75c7.047-4.694 8.43-12.57 3.28-18.69-5.084-6.042-13.08-6.098-18.8-0.1313-9.762 10.19 3.793 26.63 15.52 18.83zm51.18-13.11c13.74-5.855 8.717-26.91-5.771-24.2-13.22 2.48-14.62 20.72-1.891 24.53 4.008 1.2 4.062 1.198 7.663-0.3367zm-22.94-23.51c7.448-7.448 1.995-21.12-8.424-21.12-7.718 0-12.92 5.243-12.92 13.02 0 10.71 13.58 15.86 21.34 8.097zm53.37-14.51c5.551-6.058 4.156-15.56-2.814-19.16-7.82-4.044-17.44 0.6892-18.57 9.139-1.648 12.28 13.02 19.16 21.39 10.03zm-28.1-19.72c6.144-5.772 4.496-16.72-3.059-20.3-13.53-6.419-24.87 10.66-13.76 20.72 4.445 4.023 12.3 3.828 16.82-0.4167zm51.77-12.98c7.707-6.062 7.042-17.05-1.291-21.36-11.19-5.787-22.47 6.097-16.58 17.48 3.043 5.885 12.67 7.979 17.87 3.887zm-29.87-19.35c12.38-5.175 8.35-23.89-5.151-23.89-13.45 0-17.2 18.48-4.86 23.93 3.9 1.722 5.818 1.714 10.01-0.0373zm52.85-13.94c13.6-5.682 7.116-27.72-7.106-24.15-12.44 3.121-13.22 22.47-0.9994 24.82 4.045 0.78 4.77 0.7197 8.106-0.6742zm-26.46-21.07c3.953-2.044 6.432-6.304 6.432-11.05 0-13.94-19.25-17.21-24.23-4.119-3.952 10.38 7.754 20.36 17.8 15.17zm53.19-14.1c5.997-3.101 8.459-10.55 5.426-16.41-6.217-12.02-23.52-7.971-23.52 5.507 0 9.386 9.712 15.24 18.09 10.91zm-28.41-20.39c13.3-6.037 5.997-27.21-8.157-23.65-11.65 2.924-12.73 20.42-1.492 24.29 4.587 1.58 4.797 1.566 9.649-0.6369zm54.35-14.57c8.219-4.25 7.82-17.95-0.6399-21.97-13.26-6.293-24.75 10.35-13.97 20.23 4.052 3.713 9.525 4.363 14.61 1.734zm-28.3-20.16c4.995-2.37 7.957-9.074 6.361-14.4-2.736-9.132-14.02-12.2-20.62-5.602-10.38 10.38 0.9758 26.3 14.25 20zm-673.9 225.3c-18.96-6.777-20.71-11.39-26.35-69.68-2.471-25.54-8.337-86.04-13.03-134.4s-9.891-102-11.54-119-4.6-47.2-6.553-67c-4.985-50.53-2.326-60.18 18.55-67.35 3.27-1.123 125.7-13.55 146.2-14.83 14.66-0.9197 23.93 3.206 31.16 13.86 5.77 8.512 2.286-22.35 30.68 271.8 7.141 73.98 13.19 136.3 13.45 138.4 1.764 15.03-8.404 30.47-22.84 34.7-3.846 1.127-143.9 14.87-150.9 14.81-2.849-0.0241-6.808-0.6256-8.798-1.337zm52.62-16.05c55.61-5.46 58.92-6.885 60.56-26.07 0.4792-5.603 2.989-5.545-43.49-1-19.68 1.925-36.62 3.5-37.63 3.5-1.318 0-2.033-1.001-2.502-3.5-0.7887-4.204 0.1724-4.123-23.24-1.953-21.32 1.976-21.19 1.946-21.19 4.867 0 9.051 7.905 22.85 15.15 26.43 5.375 2.661-0.5943 2.92 52.35-2.278zm-44.93-36.09c21.22-2.027 20.24-1.733 20.62-6.232 0.349-4.215-3.179-3.635 56.62-9.304 13.37-1.267 24.95-2.785 25.74-3.373 1.565-1.168 0.235-19.12-1.552-20.95-0.5001-0.5129-17.83 0.778-41.18 3.067-41.94 4.112-42.81 4.105-42.81-0.3358 0-3.565-0.8824-3.616-23.06-1.34-20.78 2.133-22.26 2.58-21.44 6.486 0.2317 1.105 0.9091 7.858 1.505 15.01 1.796 21.54-1.221 19.54 25.56 16.98zm-1.102-46.04c17.86-1.728 17.03-1.447 17.03-5.77 0-4.14-1.303-3.898 44.5-8.245 43.28-4.107 39.4-2.614 38.48-14.8-0.9618-12.83 2.967-12.14-43.4-7.596-41.66 4.084-42.08 4.094-42.08 0.9835 0-4.503-1.559-4.726-20.12-2.877-9.559 0.952-18.51 1.768-19.88 1.813-5.358 0.1763-5.384 0.3169-3.504 19.18 1.984 19.91 2.121 20.23 8.434 19.43 2.514-0.3179 11.76-1.273 20.54-2.123zm-9.898-44.95c23.53-2.234 22.43-1.934 22.43-6.065 0-4.522-3.33-3.869 42.32-8.298 21.9-2.125 40.24-4.284 40.75-4.797 0.8488-0.8488-0.1643-17-1.636-26.08-0.6752-4.165 4.632-4.352-64.4 2.269-71.97 6.904-64.04 5.507-64.02 11.28 0.0266 6.295 2.681 30.91 3.471 32.19 0.8188 1.325 2.232 1.291 21.08-0.4975zm39.93-50c67.16-6.393 62.5-5.706 62.5-9.203 0-5.16-2.283-25.13-3.007-26.3-0.5541-0.8965-9.931-0.3008-38.61 2.453-49.54 4.756-44.82 4.612-45.19 1.382-0.5518-4.775-1.367-4.87-23.24-2.707-24.68 2.441-22.32 0.01-20.33 20.95 1.815 19.16 2.183 20.22 6.768 19.46 1.711-0.2821 29.21-2.997 61.11-6.034zm-47-41.49c11-1.095 20.11-1.993 20.25-1.995 0.1375-3e-3 0.25-1.553 0.25-3.446 0-4.753-2.331-4.276 42.23-8.644 46.34-4.541 42.27-3 40.91-15.48-1.116-10.27-1.847-11.58-6.097-10.89-1.401 0.2278-19.59 2.046-40.42 4.041-40.62 3.89-39.57 3.925-39.61-1.337-0.0127-1.868-0.5675-2.251-3.265-2.254-6.165-9e-3 -38.67 3.338-39.92 4.109-1.23 0.7601 1.271 34.63 2.732 37 0.7183 1.162-0.2861 1.21 22.94-1.101zm-3.5-45.65c18.88-1.801 20-2.159 20-6.418 0-3.837-2.878-3.305 40-7.387 42.96-4.089 42.6-4.041 43.24-5.791 0.7183-1.965-2.116-27.03-3.176-28.09-1.091-1.091-125.8 10.69-127.1 12.01-0.733 0.7334 1.416 29.35 2.634 35.08 0.5946 2.794 1.302 2.812 24.44 0.6049zm39-49.91c63.74-6.113 61.02-5.723 60.94-8.76-0.1862-6.991-2.692-25.83-3.55-26.69-0.6868-0.6868-14.08 0.2589-41.42 2.924-44.08 4.298-41.55 4.288-42.46 0.156-0.8798-4.006-0.6044-3.984-23.02-1.822-24.31 2.345-22.17 0.1187-20.1 20.93 1.946 19.5 2.206 20.13 8.002 19.33 2.253-0.3077 29.97-3.041 61.6-6.075zm-47.93-41.32c19.61-1.984 19.93-2.083 19.93-6.121 0-4.059-2.075-3.667 42.08-7.958 22.1-2.148 40.59-4.31 41.08-4.803 0.8773-0.8773-0.6398-18.59-1.745-20.38-0.8474-1.371-5.592-1.081-44.66 2.727-39.17 3.818-39.75 3.818-39.75-5.2e-4 0-3.86-0.9664-3.948-22.22-2.021-20.48 1.856-23.39 2.674-22.39 6.286 0.2512 0.9046 1.008 7.945 1.682 15.64s1.598 15.01 2.053 16.25c0.999 2.718 0.7792 2.715 23.94 0.3711zm-3.568-45.74c17.95-1.748 19.93-2.37 19.22-6.061-0.7145-3.738 0.07965-3.89 40.78-7.787 46.39-4.442 45.75-4.145 34.22-16-7.226-7.429-6.086-7.378-56.45-2.541-55.61 5.34-55.86 5.425-60.6 20.08-4.78 14.8-4.461 14.97 22.83 12.31z" fill="#0a2c3a"/></g></g></svg>
